<?xml version="1.0" encoding="UTF-8"?>
<svg xmlns="http://www.w3.org/2000/svg" xmlns:xlink="http://www.w3.org/1999/xlink" viewBox="0 0 64 64" version="1.1" width="512px" height="512px">
<g id="surface1">
<path style=" fill:#85CBF8;" d="M 59 31 C 59 46.464844 46.464844 59 31 59 C 15.535156 59 3 46.464844 3 31 C 3 15.535156 15.535156 3 31 3 C 46.464844 3 59 15.535156 59 31 Z "/>
<path style=" fill:#F9E3AE;" d="M 31 3 C 15.535156 3 3 15.535156 3 31 C 3 46.464844 15.535156 59 31 59 C 46.464844 59 59 46.464844 59 31 C 59 15.535156 46.464844 3 31 3 Z M 31 53 C 21.109375 53 12.433594 46.402344 9.792969 36.867188 C 7.15625 27.335938 11.203125 17.214844 19.6875 12.128906 C 28.171875 7.042969 39.007813 8.246094 46.171875 15.070313 L 46.851563 15.738281 C 47.109375 16.007813 47.359375 16.28125 47.601563 16.558594 C 53.257813 23.0625 54.597656 32.273438 51.023438 40.121094 C 47.449219 47.964844 39.621094 53 31 53 Z "/>
<path style=" fill:#F6D397;" d="M 31 53 C 18.851563 53 9 43.148438 9 31 L 7.339844 31 C 6.152344 30.996094 5.023438 31.519531 4.261719 32.429688 C 3.5 33.339844 3.179688 34.542969 3.390625 35.710938 C 5.675781 49.171875 17.339844 59.023438 30.996094 59.023438 C 44.652344 59.023438 56.3125 49.171875 58.601563 35.710938 C 58.808594 34.542969 58.492188 33.34375 57.730469 32.433594 C 56.972656 31.523438 55.847656 31 54.660156 31 L 53 31 C 53 43.148438 43.148438 53 31 53 Z "/>
<path style=" fill:#8D6C9F;" d="M 31 2 C 14.984375 2 2 14.984375 2 31 C 2 47.015625 14.984375 60 31 60 C 47.015625 60 60 47.015625 60 31 C 60 14.984375 47.015625 2 31 2 Z M 31 58 C 16.089844 58 4 45.910156 4 31 C 4 16.089844 16.089844 4 31 4 C 45.910156 4 58 16.089844 58 31 C 58 45.910156 45.910156 58 31 58 Z "/>
<path style=" fill:#8D6C9F;" d="M 31 50 C 30.449219 50 30 50.449219 30 51 L 30 53 C 30 53.550781 30.449219 54 31 54 C 31.550781 54 32 53.550781 32 53 L 32 51 C 32 50.449219 31.550781 50 31 50 Z "/>
<path style=" fill:#8D6C9F;" d="M 37 50.078125 C 36.84375 49.566406 36.304688 49.265625 35.785156 49.40625 C 35.261719 49.546875 34.949219 50.074219 35.070313 50.601563 L 35.589844 52.53125 C 35.738281 53.066406 36.289063 53.382813 36.824219 53.234375 C 37.359375 53.089844 37.675781 52.535156 37.53125 52 Z "/>
<path style=" fill:#8D6C9F;" d="M 21.75 47.519531 C 21.519531 47.386719 21.246094 47.351563 20.988281 47.417969 C 20.730469 47.488281 20.511719 47.660156 20.378906 47.890625 L 19.378906 49.621094 C 19.132813 50.09375 19.300781 50.679688 19.765625 50.949219 C 20.230469 51.21875 20.824219 51.070313 21.109375 50.621094 L 22.109375 48.890625 C 22.246094 48.660156 22.28125 48.386719 22.214844 48.128906 C 22.148438 47.875 21.980469 47.652344 21.75 47.519531 Z "/>
<path style=" fill:#8D6C9F;" d="M 41.621094 47.890625 C 41.332031 47.4375 40.738281 47.292969 40.277344 47.5625 C 39.8125 47.828125 39.640625 48.414063 39.890625 48.890625 L 40.890625 50.621094 C 41.175781 51.070313 41.769531 51.21875 42.234375 50.949219 C 42.699219 50.679688 42.867188 50.09375 42.621094 49.621094 Z "/>
<path style=" fill:#8D6C9F;" d="M 26.210938 49.371094 C 25.675781 49.230469 25.132813 49.546875 24.988281 50.078125 L 24.46875 52 C 24.363281 52.347656 24.453125 52.730469 24.710938 52.992188 C 24.964844 53.253906 25.34375 53.355469 25.695313 53.257813 C 26.046875 53.160156 26.316406 52.875 26.398438 52.519531 L 26.921875 50.589844 C 27.058594 50.058594 26.742188 49.511719 26.210938 49.371094 Z "/>
<path style=" fill:#8D6C9F;" d="M 40.898438 12.351563 C 41.359375 12.347656 41.761719 12.03125 41.867188 11.582031 C 41.972656 11.132813 41.761719 10.671875 41.351563 10.460938 C 40.601563 10.085938 39.835938 9.75 39.050781 9.460938 C 38.542969 9.304688 38.003906 9.566406 37.816406 10.066406 C 37.632813 10.5625 37.863281 11.117188 38.351563 11.328125 C 39.066406 11.597656 39.765625 11.90625 40.449219 12.25 C 40.589844 12.316406 40.746094 12.351563 40.898438 12.351563 Z "/>
<path style=" fill:#8D6C9F;" d="M 35.480469 9.441406 C 35.523438 9.175781 35.460938 8.910156 35.304688 8.691406 C 35.148438 8.476563 34.914063 8.332031 34.648438 8.289063 C 24.789063 6.6875 15.019531 11.632813 10.476563 20.53125 C 5.929688 29.425781 7.652344 40.242188 14.730469 47.289063 C 15.125 47.628906 15.71875 47.605469 16.085938 47.238281 C 16.457031 46.867188 16.480469 46.277344 16.140625 45.878906 C 7.9375 37.679688 7.9375 24.382813 16.140625 16.179688 C 20.914063 11.421875 27.671875 9.230469 34.328125 10.289063 C 34.59375 10.332031 34.867188 10.265625 35.082031 10.105469 C 35.300781 9.945313 35.441406 9.707031 35.480469 9.441406 Z "/>
<path style=" fill:#8D6C9F;" d="M 47.261719 14.738281 C 46.601563 14.078125 45.902344 13.457031 45.171875 12.878906 C 44.894531 12.628906 44.496094 12.550781 44.144531 12.683594 C 43.792969 12.8125 43.546875 13.128906 43.503906 13.503906 C 43.460938 13.875 43.628906 14.242188 43.941406 14.449219 C 44.609375 14.976563 45.246094 15.546875 45.851563 16.148438 C 54.050781 24.351563 54.050781 37.648438 45.851563 45.851563 C 45.566406 46.09375 45.441406 46.476563 45.527344 46.84375 C 45.617188 47.207031 45.902344 47.492188 46.265625 47.582031 C 46.632813 47.667969 47.015625 47.546875 47.261719 47.261719 C 56.242188 38.277344 56.242188 23.710938 47.261719 14.730469 Z "/>
</g>
</svg>
